<svg width="28" height="28" viewBox="0 0 28 28" fill="none" xmlns="http://www.w3.org/2000/svg">
<mask id="path-1-outside-1_1_9" maskUnits="userSpaceOnUse" x="0" y="5" width="28" height="18" fill="black">
<rect fill="white" y="5" width="28" height="18"/>
<path d="M26.6153 6.15291C26.6074 6.1411 26.5929 6.1411 26.5851 6.13191C26.5576 6.09669 26.5219 6.08094 26.4825 6.05994C26.4443 6.04025 26.4153 6.01947 26.3732 6.01553C26.3586 6.01291 26.3507 6 26.3377 6H1.32921C1.31467 6 1.30673 6.01313 1.29241 6.01444C1.25275 6.01947 1.22366 6.03916 1.18686 6.05862C1.1461 6.07962 1.1093 6.09538 1.08153 6.1306C1.0725 6.1411 1.05795 6.1411 1.05134 6.15291C1.03283 6.18025 1.04341 6.21154 1.03548 6.24172C1.02622 6.27169 1 6.294 1 6.3266V22.0067C1 22.187 1.14742 22.3333 1.32899 22.3333H26.3375C26.519 22.3333 26.6664 22.187 26.6664 22.0067L26.6667 6.3266C26.6667 6.294 26.6404 6.27169 26.6312 6.24172C26.6233 6.21153 26.6338 6.18025 26.6153 6.15291H26.6153ZM25.2004 6.6532L13.8332 13.7798L2.46587 6.6532H25.2004ZM1.65808 21.6804V6.91864L13.6583 14.4423C13.7123 14.4762 13.7729 14.4933 13.8332 14.4933C13.8938 14.4933 13.9558 14.4762 14.0082 14.4423L26.0084 6.91864V21.6804H1.65808Z"/>
</mask>
<path d="M26.6153 6.15291C26.6074 6.1411 26.5929 6.1411 26.5851 6.13191C26.5576 6.09669 26.5219 6.08094 26.4825 6.05994C26.4443 6.04025 26.4153 6.01947 26.3732 6.01553C26.3586 6.01291 26.3507 6 26.3377 6H1.32921C1.31467 6 1.30673 6.01313 1.29241 6.01444C1.25275 6.01947 1.22366 6.03916 1.18686 6.05862C1.1461 6.07962 1.1093 6.09538 1.08153 6.1306C1.0725 6.1411 1.05795 6.1411 1.05134 6.15291C1.03283 6.18025 1.04341 6.21154 1.03548 6.24172C1.02622 6.27169 1 6.294 1 6.3266V22.0067C1 22.187 1.14742 22.3333 1.32899 22.3333H26.3375C26.519 22.3333 26.6664 22.187 26.6664 22.0067L26.6667 6.3266C26.6667 6.294 26.6404 6.27169 26.6312 6.24172C26.6233 6.21153 26.6338 6.18025 26.6153 6.15291H26.6153ZM25.2004 6.6532L13.8332 13.7798L2.46587 6.6532H25.2004ZM1.65808 21.6804V6.91864L13.6583 14.4423C13.7123 14.4762 13.7729 14.4933 13.8332 14.4933C13.8938 14.4933 13.9558 14.4762 14.0082 14.4423L26.0084 6.91864V21.6804H1.65808Z" fill="#6415FF"/>
<path d="M26.6153 6.15291V6.65291H27.5534L27.0304 5.87417L26.6153 6.15291ZM26.5851 6.13191L26.1913 6.43993L26.1966 6.44675L26.2022 6.45338L26.5851 6.13191ZM26.4825 6.05994L26.7175 5.61857L26.7119 5.61569L26.4825 6.05994ZM26.3732 6.01553L26.2844 6.50758L26.3053 6.51137L26.3266 6.51336L26.3732 6.01553ZM1.29241 6.01444L1.2468 5.51652L1.23813 5.51732L1.22949 5.51841L1.29241 6.01444ZM1.18686 6.05862L1.41585 6.50314L1.42069 6.50058L1.18686 6.05862ZM1.08153 6.1306L1.46054 6.45671L1.46755 6.44857L1.4742 6.44014L1.08153 6.1306ZM1.05134 6.15291L1.4654 6.43319L1.4773 6.41561L1.48766 6.39709L1.05134 6.15291ZM1.03548 6.24172L1.51322 6.38925L1.51635 6.37909L1.51905 6.36881L1.03548 6.24172ZM26.6664 22.0067L26.1664 22.0067V22.0067H26.6664ZM26.6667 6.3266L27.1667 6.3266V6.3266H26.6667ZM26.6312 6.24172L26.1476 6.36879L26.1503 6.37909L26.1535 6.38927L26.6312 6.24172ZM26.6153 6.15291V5.65291H25.673L26.2013 6.43322L26.6153 6.15291ZM25.2004 6.6532L25.466 7.07683L26.9393 6.1532H25.2004V6.6532ZM13.8332 13.7798L13.5676 14.2034L13.8332 14.37L14.0987 14.2034L13.8332 13.7798ZM2.46587 6.6532V6.1532H0.727055L2.20028 7.07683L2.46587 6.6532ZM1.65808 21.6804H1.15808V22.1804H1.65808V21.6804ZM1.65808 6.91864L1.92367 6.49501L1.15808 6.01501V6.91864H1.65808ZM13.6583 14.4423L13.9242 14.0189L13.9239 14.0187L13.6583 14.4423ZM14.0082 14.4423L13.7426 14.0186L13.7367 14.0224L14.0082 14.4423ZM26.0084 6.91864H26.5084V6.01501L25.7428 6.49501L26.0084 6.91864ZM26.0084 21.6804V22.1804H26.5084V21.6804H26.0084ZM27.0304 5.87417C26.9873 5.80992 26.9368 5.76528 26.8935 5.7352C26.8543 5.70798 26.8192 5.69191 26.8126 5.68881C26.8114 5.68825 26.8104 5.68778 26.8098 5.68751C26.8072 5.68629 26.8108 5.68798 26.8088 5.68704C26.8085 5.6869 26.8101 5.68762 26.8122 5.68864C26.8162 5.69057 26.8272 5.69587 26.8409 5.70377C26.8687 5.71974 26.9196 5.75265 26.9681 5.81044L26.2022 6.45338C26.2546 6.51576 26.3101 6.55211 26.3431 6.57104C26.3594 6.58042 26.373 6.58707 26.3798 6.59031C26.3833 6.59199 26.3862 6.59335 26.3873 6.59386C26.3892 6.59476 26.3881 6.59425 26.3877 6.59404C26.3863 6.59336 26.3782 6.58961 26.3678 6.58403C26.3571 6.57825 26.3413 6.56924 26.3232 6.55667C26.3049 6.54393 26.2838 6.52733 26.2621 6.50611C26.2403 6.48471 26.2192 6.45994 26.2002 6.43165L27.0304 5.87417ZM26.979 5.82389C26.9206 5.74916 26.8566 5.70039 26.806 5.6683C26.7822 5.65322 26.7608 5.64153 26.7469 5.63407C26.7398 5.63032 26.7331 5.62679 26.7285 5.62443C26.7234 5.62173 26.7203 5.62013 26.7175 5.61861L26.2475 6.50127C26.2545 6.505 26.2611 6.50848 26.2656 6.51081C26.2707 6.51346 26.2734 6.51489 26.2757 6.51611C26.2804 6.51861 26.277 6.517 26.2706 6.51289C26.2545 6.50272 26.2222 6.47944 26.1913 6.43993L26.979 5.82389ZM26.7119 5.61569C26.7092 5.61427 26.7081 5.61366 26.695 5.60648C26.6851 5.60111 26.6655 5.59039 26.6424 5.57951C26.5914 5.5555 26.5161 5.52672 26.4197 5.5177L26.3266 6.51336C26.301 6.51096 26.2776 6.50594 26.2572 6.49974C26.2375 6.49375 26.2232 6.48743 26.2162 6.48415C26.2104 6.48141 26.2078 6.47983 26.2155 6.48402C26.2198 6.4864 26.2367 6.49576 26.253 6.50419L26.7119 5.61569ZM26.462 5.52348C26.5224 5.53438 26.5684 5.55487 26.5967 5.5698C26.6103 5.577 26.6206 5.58331 26.6255 5.58644C26.6291 5.58866 26.6338 5.59176 26.6288 5.58853C26.6266 5.58704 26.6172 5.58091 26.6055 5.57397C26.5933 5.56674 26.5745 5.55621 26.5507 5.54557C26.5007 5.52322 26.4277 5.5 26.3377 5.5V6.5C26.2972 6.5 26.2595 6.4949 26.2255 6.48671C26.1919 6.47865 26.1641 6.46811 26.1427 6.45855C26.1217 6.44916 26.1056 6.4401 26.0961 6.43448C26.0912 6.43159 26.0873 6.42917 26.0849 6.42764C26.0826 6.42616 26.0809 6.42508 26.0809 6.42503C26.079 6.4238 26.0832 6.42654 26.0834 6.42672C26.0852 6.4279 26.0885 6.43 26.0924 6.43248C26.1002 6.43739 26.1133 6.44541 26.1299 6.45419C26.1642 6.47228 26.2167 6.49537 26.2844 6.50758L26.462 5.52348ZM26.3377 5.5H1.32921V6.5H26.3377V5.5ZM1.32921 5.5C1.24651 5.5 1.1778 5.51945 1.12759 5.5403C1.10383 5.55017 1.08488 5.56006 1.07224 5.56708C1.06019 5.57377 1.05058 5.57972 1.04843 5.58105C1.04356 5.58405 1.04884 5.58077 1.05347 5.57805C1.0595 5.57452 1.07171 5.56754 1.08799 5.55982C1.12219 5.54361 1.17669 5.52295 1.2468 5.51652L1.33802 6.51235C1.3759 6.50888 1.41043 6.50157 1.44109 6.49238C1.47139 6.4833 1.49671 6.47273 1.51633 6.46344C1.53559 6.45431 1.55069 6.44574 1.55956 6.44053C1.56408 6.43788 1.56776 6.43564 1.56987 6.43435C1.57094 6.43369 1.57185 6.43313 1.57233 6.43283C1.5725 6.43273 1.57288 6.43249 1.5729 6.43248C1.57303 6.4324 1.57305 6.43239 1.57302 6.4324C1.57299 6.43243 1.57256 6.43269 1.57193 6.43307C1.57128 6.43347 1.57028 6.43407 1.56903 6.43482C1.56658 6.43629 1.56264 6.4386 1.55766 6.44136C1.54788 6.4468 1.53184 6.45522 1.51109 6.46384C1.48996 6.47262 1.46333 6.48185 1.43187 6.4888C1.40005 6.49583 1.36561 6.5 1.32921 6.5V5.5ZM1.22949 5.51841C1.14076 5.52967 1.0712 5.5571 1.02425 5.57937C1.00237 5.58975 0.983797 5.59984 0.973318 5.60557C0.95918 5.61331 0.95818 5.61395 0.95303 5.61667L1.42069 6.50058C1.42853 6.49643 1.43553 6.49262 1.44087 6.48969C1.44854 6.48547 1.44827 6.4856 1.45328 6.48286C1.45984 6.47927 1.45792 6.48047 1.45287 6.48286C1.43958 6.48916 1.4044 6.50424 1.35533 6.51046L1.22949 5.51841ZM0.957885 5.61414C0.95478 5.61574 0.951528 5.61738 0.946128 5.62011C0.941365 5.62252 0.934426 5.62603 0.927177 5.62978C0.912811 5.63722 0.890981 5.64882 0.866712 5.66379C0.815318 5.69551 0.749129 5.74461 0.688867 5.82106L1.4742 6.44014C1.4417 6.48136 1.40779 6.50497 1.39193 6.51476C1.38543 6.51877 1.38218 6.52029 1.38704 6.51777C1.38941 6.51655 1.39225 6.5151 1.39741 6.51249C1.40194 6.5102 1.40875 6.50676 1.41584 6.50311L0.957885 5.61414ZM0.702521 5.80448C0.744476 5.75572 0.787487 5.72582 0.814527 5.70941C0.827526 5.70152 0.837903 5.69613 0.842213 5.69393C0.8431 5.69348 0.851016 5.68951 0.842347 5.69383C0.837043 5.69648 0.799069 5.71481 0.757624 5.74588C0.710633 5.78112 0.657024 5.83368 0.615021 5.90873L1.48766 6.39709C1.46908 6.43029 1.44736 6.45982 1.42388 6.48561C1.40066 6.51111 1.37759 6.53091 1.35753 6.54595C1.33783 6.56073 1.32066 6.57117 1.3093 6.57766C1.29837 6.58389 1.28987 6.58811 1.28871 6.58869C1.28851 6.58879 1.28718 6.58944 1.28941 6.58834C1.29067 6.58772 1.29367 6.58623 1.29729 6.58438C1.30442 6.58074 1.3176 6.57385 1.33334 6.5643C1.36585 6.54456 1.41407 6.51072 1.46054 6.45671L0.702521 5.80448ZM0.637286 5.87263C0.548317 6.00406 0.541694 6.13414 0.539928 6.17425C0.539496 6.18407 0.539292 6.19373 0.539254 6.1953C0.539162 6.19903 0.539199 6.1962 0.539437 6.19183C0.539921 6.18291 0.541794 6.15308 0.5519 6.11463L1.51905 6.36881C1.53313 6.31527 1.53665 6.27021 1.53796 6.24608C1.53861 6.2341 1.53886 6.22368 1.53895 6.21984C1.5391 6.21382 1.53906 6.21594 1.53896 6.21825C1.53874 6.22325 1.53756 6.25236 1.52844 6.29047C1.51843 6.33226 1.49958 6.3827 1.4654 6.43319L0.637286 5.87263ZM0.557738 6.09419C0.569551 6.05594 0.583829 6.0295 0.588229 6.02152C0.590493 6.01742 0.592001 6.01495 0.590433 6.01759C0.590054 6.01823 0.585185 6.02635 0.580934 6.03373C0.564913 6.06156 0.5 6.17196 0.5 6.3266H1.5C1.5 6.38777 1.48729 6.43858 1.47402 6.47498C1.46192 6.50819 1.44876 6.53061 1.4476 6.53262C1.44721 6.5333 1.44634 6.53477 1.44994 6.52872C1.45235 6.52466 1.45781 6.51548 1.46383 6.50456C1.47575 6.48295 1.49678 6.44249 1.51322 6.38925L0.557738 6.09419ZM0.5 6.3266V22.0067H1.5V6.3266H0.5ZM0.5 22.0067C0.5 22.4666 0.874726 22.8333 1.32899 22.8333V21.8333C1.42011 21.8333 1.5 21.9074 1.5 22.0067H0.5ZM1.32899 22.8333H26.3375V21.8333H1.32899V22.8333ZM26.3375 22.8333C26.7917 22.8333 27.1664 22.4666 27.1664 22.0067H26.1664C26.1664 21.9074 26.2463 21.8333 26.3375 21.8333V22.8333ZM27.1664 22.0067L27.1667 6.3266L26.1667 6.32659L26.1664 22.0067L27.1664 22.0067ZM27.1667 6.3266C27.1667 6.17197 27.1018 6.06158 27.0857 6.03374C27.0815 6.02635 27.0766 6.01823 27.0762 6.01759C27.0747 6.01495 27.0762 6.01742 27.0784 6.02152C27.0828 6.02949 27.0971 6.05593 27.1089 6.09418L26.1535 6.38927C26.1699 6.4425 26.1909 6.48296 26.2028 6.50456C26.2089 6.51548 26.2143 6.52466 26.2167 6.52871C26.2203 6.53476 26.2195 6.5333 26.2191 6.53261C26.2179 6.5306 26.2047 6.50818 26.1926 6.47497C26.1794 6.43857 26.1667 6.38776 26.1667 6.3266H27.1667ZM27.1148 6.11465C27.1249 6.15309 27.1267 6.18292 27.1272 6.19183C27.1275 6.1962 27.1275 6.19903 27.1274 6.19529C27.1274 6.19373 27.1272 6.18406 27.1267 6.17425C27.125 6.13414 27.1184 6.00404 27.0294 5.8726L26.2013 6.43322C26.1671 6.38273 26.1482 6.33227 26.1382 6.29048C26.1291 6.25237 26.1279 6.22324 26.1277 6.21824C26.1276 6.21594 26.1276 6.21382 26.1277 6.21983C26.1278 6.22367 26.1281 6.2341 26.1287 6.24608C26.13 6.2702 26.1335 6.31526 26.1476 6.36879L27.1148 6.11465ZM26.6153 6.65291H26.6153V5.65291H26.6153V6.65291ZM24.9349 6.22957L13.5676 13.3562L14.0987 14.2034L25.466 7.07683L24.9349 6.22957ZM14.0987 13.3562L2.73147 6.22957L2.20028 7.07683L13.5676 14.2034L14.0987 13.3562ZM2.46587 7.1532H25.2004V6.1532H2.46587V7.1532ZM2.15808 21.6804V6.91864H1.15808V21.6804H2.15808ZM1.39248 7.34226L13.3927 14.8659L13.9239 14.0187L1.92367 6.49501L1.39248 7.34226ZM13.3924 14.8657C13.5256 14.9494 13.6783 14.9933 13.8332 14.9933V13.9933C13.8675 13.9933 13.899 14.003 13.9242 14.0189L13.3924 14.8657ZM13.8332 14.9933C13.985 14.9933 14.1421 14.9511 14.2797 14.8622L13.7367 14.0224C13.7694 14.0013 13.8027 13.9933 13.8332 13.9933V14.9933ZM14.2738 14.8659L26.274 7.34226L25.7428 6.49501L13.7426 14.0187L14.2738 14.8659ZM25.5084 6.91864V21.6804H26.5084V6.91864H25.5084ZM26.0084 21.1804H1.65808V22.1804H26.0084V21.1804Z" fill="#6415FF" mask="url(#path-1-outside-1_1_9)"/>
</svg>
