<svg width="28" height="28" viewBox="0 0 28 28" fill="none" xmlns="http://www.w3.org/2000/svg">
<path d="M12.7167 2.45001C7.35 3.03335 3.03333 7.35001 2.45 12.6C1.86666 18.0833 5.01666 22.9833 9.79999 24.85C10.15 24.9667 10.5 24.7333 10.5 24.2667V22.4C10.5 22.4 10.0333 22.5167 9.45 22.5167C7.81666 22.5167 7.11666 21.1167 7 20.3C6.88333 19.8333 6.65 19.4833 6.3 19.1333C5.95 19.0167 5.83333 19.0167 5.83333 18.9C5.83333 18.6667 6.18333 18.6667 6.3 18.6667C7 18.6667 7.58333 19.4833 7.81666 19.8333C8.39999 20.7667 9.1 21 9.45 21C9.91666 21 10.2667 20.8833 10.5 20.7667C10.6167 19.95 10.9667 19.1333 11.6667 18.6667C8.98333 18.0833 7 16.5667 7 14C7 12.7167 7.58333 11.4333 8.39999 10.5C8.28333 10.2667 8.16666 9.68335 8.16666 8.86668C8.16666 8.40001 8.16666 7.70001 8.51666 7.00001C8.51666 7.00001 10.15 7.00001 11.7833 8.51668C12.3667 8.28335 13.1833 8.16668 14 8.16668C14.8167 8.16668 15.6333 8.28335 16.3333 8.51668C17.85 7.00001 19.6 7.00001 19.6 7.00001C19.8333 7.70001 19.8333 8.40001 19.8333 8.86668C19.8333 9.80001 19.7167 10.2667 19.6 10.5C20.4167 11.4333 21 12.6 21 14C21 16.5667 19.0167 18.0833 16.3333 18.6667C17.0333 19.25 17.5 20.3 17.5 21.35V24.3833C17.5 24.7333 17.85 25.0833 18.3167 24.9667C22.6333 23.2167 25.6667 19.0167 25.6667 14.1167C25.6667 7.11668 19.7167 1.63335 12.7167 2.45001Z" fill="#6415FF"/>
</svg>
