<svg width="28" height="28" viewBox="0 0 28 28" fill="none" xmlns="http://www.w3.org/2000/svg">
<path d="M5.83333 3.5C4.54417 3.5 3.5 4.54417 3.5 5.83333V22.1667C3.5 23.4558 4.54417 24.5 5.83333 24.5H22.1667C23.4558 24.5 24.5 23.4558 24.5 22.1667V5.83333C24.5 4.54417 23.4558 3.5 22.1667 3.5H5.83333ZM5.83333 5.83333H22.1667V22.1667H5.83333V5.83333ZM9.07585 7.36914C8.07601 7.36914 7.47624 7.97017 7.47624 8.77051C7.47624 9.57084 8.07609 10.1696 8.97559 10.1696C9.97542 10.1696 10.5752 9.57084 10.5752 8.77051C10.5752 7.97017 9.97535 7.36914 9.07585 7.36914ZM7.55599 11.6667V19.8333H10.5V11.6667H7.55599ZM12.929 11.6667V19.8333H15.873V15.3695C15.873 14.0406 16.8211 13.8496 17.1058 13.8496C17.3905 13.8496 18.1517 14.1351 18.1517 15.3695V19.8333H21V15.3695C21 12.8063 19.861 11.6667 18.4365 11.6667C17.012 11.6667 16.2522 12.141 15.873 12.806V11.6667H12.929Z" fill="#6415FF"/>
</svg>
